  0
SECTION
  2
HEADER
  9
$ACADVER
  1
AC1014
  9
$HANDSEED
  5
FFFF
  9
$MEASUREMENT
 70
     1
  0
ENDSEC
  0
SECTION
  2
TABLES
  0
TABLE
  2
VPORT
  5
8
330
0
100
AcDbSymbolTable
 70
     4
  0
VPORT
  5
2E
330
8
100
AcDbSymbolTableRecord
100
AcDbViewportTableRecord
  2
*ACTIVE
 70
     0
 10
0.0
 20
0.0
 11
1.0
 21
1.0
 12
210.0
 22
148.5
 13
0.0
 23
0.0
 14
10.0
 24
10.0
 15
10.0
 25
10.0
 16
0.0
 26
0.0
 36
1.0
 17
0.0
 27
0.0
 37
0.0
 40
341.0
 41
1.24
 42
50.0
 43
0.0
 44
0.0
 50
0.0
 51
0.0
 71
     0
 72
   100
 73
     1
 74
     3
 75
     0
 76
     0
 77
     0
 78
     0
  0
ENDTAB
  0
TABLE
  2
LTYPE
  5
5
330
0
100
AcDbSymbolTable
 70
     1
  0
LTYPE
  5
14
330
5
100
AcDbSymbolTableRecord
100
AcDbLinetypeTableRecord
  2
BYBLOCK
 70
     0
  3

 72
    65
 73
     0
 40
0.0
  0
LTYPE
  5
15
330
5
100
AcDbSymbolTableRecord
100
AcDbLinetypeTableRecord
  2
BYLAYER
 70
     0
  3

 72
    65
 73
     0
 40
0.0
  0
LTYPE
  5
16
330
5
100
AcDbSymbolTableRecord
100
AcDbLinetypeTableRecord
  2
CONTINUOUS
 70
     0
  3
Solid line
 72
    65
 73
     0
 40
0.0
  0
ENDTAB
  0
TABLE
  2
LAYER
  5
2
100
AcDbSymbolTable
 70
1
  0
LAYER
  5
50
100
AcDbSymbolTableRecord
100
AcDbLayerTableRecord
  2
0
 70
0
  6
CONTINUOUS
  0
ENDTAB
  0
TABLE
  2
STYLE
  5
3
330
0
100
AcDbSymbolTable
 70
     1
  0
STYLE
  5
11
330
3
100
AcDbSymbolTableRecord
100
AcDbTextStyleTableRecord
  2
STANDARD
 70
     0
 40
0.0
 41
1.0
 50
0.0
 71
     0
 42
2.5
  3
txt
  4

  0
ENDTAB
  0
TABLE
  2
VIEW
  5
6
330
0
100
AcDbSymbolTable
 70
     0
  0
ENDTAB
  0
TABLE
  2
UCS
  5
7
330
0
100
AcDbSymbolTable
 70
     0
  0
ENDTAB
  0
TABLE
  2
APPID
  5
9
330
0
100
AcDbSymbolTable
 70
     2
  0
APPID
  5
12
330
9
100
AcDbSymbolTableRecord
100
AcDbRegAppTableRecord
  2
ACAD
 70
     0
  0
ENDTAB
  0
TABLE
  2
DIMSTYLE
  5
A
330
0
100
AcDbSymbolTable
 70
     1
  0
DIMSTYLE
105
27
330
A
100
AcDbSymbolTableRecord
100
AcDbDimStyleTableRecord
  2
ISO-25
 70
     0
  3

  4

  5

  6

  7

 40
1.0
 41
2.5
 42
0.625
 43
3.75
 44
1.25
 45
0.0
 46
0.0
 47
0.0
 48
0.0
140
2.5
141
2.5
142
0.0
143
0.03937007874016
144
1.0
145
0.0
146
1.0
147
0.625
 71
     0
 72
     0
 73
     0
 74
     0
 75
     0
 76
     0
 77
     1
 78
     8
170
     0
171
     3
172
     1
173
     0
174
     0
175
     0
176
     0
177
     0
178
     0
270
     2
271
     2
272
     2
273
     2
274
     3
340
11
275
     0
280
     0
281
     0
282
     0
283
     0
284
     8
285
     0
286
     0
287
     3
288
     0
  0
ENDTAB
  0
TABLE
  2
BLOCK_RECORD
  5
1
330
0
100
AcDbSymbolTable
 70
     1
  0
BLOCK_RECORD
  5
1F
330
1
100
AcDbSymbolTableRecord
100
AcDbBlockTableRecord
  2
*MODEL_SPACE
  0
BLOCK_RECORD
  5
1B
330
1
100
AcDbSymbolTableRecord
100
AcDbBlockTableRecord
  2
*PAPER_SPACE
  0
ENDTAB
  0
ENDSEC
  0
SECTION
  2
BLOCKS
  0
BLOCK
  5
20
330
1F
100
AcDbEntity
  8
0
100
AcDbBlockBegin
  2
*MODEL_SPACE
 70
     0
 10
0.0
 20
0.0
 30
0.0
  3
*MODEL_SPACE
  1

  0
ENDBLK
  5
21
330
1F
100
AcDbEntity
  8
0
100
AcDbBlockEnd
  0
BLOCK
  5
1C
330
1B
100
AcDbEntity
 67
     1
  8
0
100
AcDbBlockBegin
  2
*PAPER_SPACE
  1

  0
ENDBLK
  5
1D
330
1B
100
AcDbEntity
 67
     1
  8
0
100
AcDbBlockEnd
  0
ENDSEC
  0
SECTION
  2
ENTITIES
  0
SPLINE
  5
100
100
AcDbEntity
  8
0
 62
7
100
AcDbSpline
 70
0
 71
3
 72
13
 73
9
 74
7
 40
0.000000
 40
0.000000
 40
0.000000
 40
0.000000
 40
4.602684
 40
8.464560
 40
11.119698
 40
11.728695
 40
12.240987
 40
12.862069
 40
12.862069
 40
12.862069
 40
12.862069
 10
20.665708
 20
5.298602
 30
0.0
 10
19.143372
 20
5.511199
 30
0.0
 10
16.343722
 20
5.902176
 30
0.0
 10
12.777775
 20
6.896608
 30
0.0
 10
10.556067
 20
7.854882
 30
0.0
 10
9.621958
 20
8.722774
 30
0.0
 10
9.371108
 20
9.265965
 30
0.0
 10
9.363932
 20
9.647158
 30
0.0
 10
9.360000
 20
9.856048
 30
0.0
 11
20.665708
 21
5.298602
 31
0.0
 11
16.123883
 21
6.044613
 31
0.0
 11
12.411186
 21
7.107613
 31
0.0
 11
10.057268
 21
8.335956
 31
0.0
 11
9.632232
 21
8.772100
 31
0.0
 11
9.418642
 21
9.237741
 31
0.0
 11
9.360000
 21
9.856048
 31
0.0
  0
LWPOLYLINE
  5
101
100
AcDbEntity
  8
0
 62
7
100
AcDbPolyline
 90
3
 70
0
 10
9.360000
 20
9.856048
 30
0.0
 10
9.360000
 20
10.789428
 30
0.0
 10
10.499041
 20
10.067072
 30
0.0
  0
SPLINE
  5
102
100
AcDbEntity
  8
0
 62
7
100
AcDbSpline
 70
0
 71
3
 72
25
 73
21
 74
19
 40
0.000000
 40
0.000000
 40
0.000000
 40
0.000000
 40
2.343941
 40
5.353652
 40
8.594661
 40
13.465169
 40
18.205395
 40
21.525824
 40
21.730080
 40
22.974309
 40
26.011669
 40
28.777115
 40
31.263143
 40
32.968649
 40
35.900290
 40
38.768360
 40
40.896255
 40
41.761109
 40
42.301898
 40
43.013712
 40
43.013712
 40
43.013712
 40
43.013712
 10
10.499041
 20
10.067072
 30
0.0
 10
11.197707
 20
9.714499
 30
0.0
 10
12.793486
 20
8.909211
 30
0.0
 10
15.572039
 20
8.134570
 30
0.0
 10
19.189493
 20
7.433169
 30
0.0
 10
23.588974
 20
7.019046
 30
0.0
 10
27.522022
 20
7.700523
 30
0.0
 10
30.993460
 20
6.979498
 30
0.0
 10
31.830551
 20
8.552392
 30
0.0
 10
29.204179
 20
7.992184
 30
0.0
 10
27.627209
 20
8.393813
 30
0.0
 10
24.631315
 20
8.302204
 30
0.0
 10
22.365264
 20
8.421436
 30
0.0
 10
19.985072
 20
8.603176
 30
0.0
 10
17.539649
 20
9.135638
 30
0.0
 10
14.968692
 20
9.774707
 30
0.0
 10
13.143127
 20
10.454685
 30
0.0
 10
12.057342
 20
10.946858
 30
0.0
 10
11.588472
 20
11.522284
 30
0.0
 10
11.574269
 20
11.951747
 30
0.0
 10
11.566198
 20
12.195797
 30
0.0
 11
10.499041
 21
10.067072
 31
0.0
 11
12.620915
 21
9.071224
 31
0.0
 11
15.500142
 21
8.194634
 31
0.0
 11
18.681539
 21
7.575884
 31
0.0
 11
23.539352
 21
7.224462
 31
0.0
 11
28.276851
 21
7.385253
 31
0.0
 11
31.537550
 21
8.012218
 31
0.0
 11
31.626085
 21
8.196289
 31
0.0
 11
30.384803
 21
8.281878
 31
0.0
 11
27.347504
 21
8.301130
 31
0.0
 11
24.582334
 21
8.340170
 31
0.0
 11
22.098608
 21
8.447163
 31
0.0
 11
20.400000
 21
8.600390
 31
0.0
 11
17.521196
 21
9.154474
 31
0.0
 11
14.749755
 21
9.892674
 31
0.0
 11
12.756071
 21
10.636424
 31
0.0
 11
12.003446
 21
11.062484
 31
0.0
 11
11.675394
 21
11.492408
 31
0.0
 11
11.566198
 21
12.195797
 31
0.0
  0
LWPOLYLINE
  5
103
100
AcDbEntity
  8
0
 62
7
100
AcDbPolyline
 90
3
 70
0
 10
11.566198
 20
12.195797
 30
0.0
 10
11.492398
 20
13.200098
 30
0.0
 10
12.286199
 20
12.734818
 30
0.0
  0
SPLINE
  5
104
100
AcDbEntity
  8
0
 62
7
100
AcDbSpline
 70
0
 71
3
 72
31
 73
27
 74
25
 40
0.000000
 40
0.000000
 40
0.000000
 40
0.000000
 40
7.295004
 40
17.550327
 40
26.851824
 40
27.877161
 40
28.810977
 40
29.453402
 40
29.976351
 40
30.168771
 40
30.483134
 40
30.792973
 40
31.088113
 40
31.622158
 40
32.743996
 40
33.499319
 40
34.622917
 40
35.502304
 40
36.080271
 40
36.745307
 40
38.790112
 40
41.761510
 40
45.518107
 40
49.912905
 40
55.888866
 40
60.511128
 40
60.511128
 40
60.511128
 40
60.511128
 10
12.286199
 20
12.734818
 30
0.0
 10
14.631089
 20
12.050525
 30
0.0
 10
20.272425
 20
10.404254
 30
0.0
 10
29.302443
 20
10.485942
 30
0.0
 10
36.190696
 20
10.989579
 30
0.0
 10
39.800540
 20
12.044728
 30
0.0
 10
40.614131
 20
12.333922
 30
0.0
 10
41.286515
 20
12.559438
 30
0.0
 10
41.635459
 20
12.855944
 30
0.0
 10
42.050555
 20
12.823739
 30
0.0
 10
41.980124
 20
12.475070
 30
0.0
 10
42.018517
 20
12.158176
 30
0.0
 10
42.405720
 20
11.983939
 30
0.0
 10
43.042254
 20
12.006107
 30
0.0
 10
43.903050
 20
12.041503
 30
0.0
 10
44.684620
 20
11.260780
 30
0.0
 10
44.623004
 20
10.284132
 30
0.0
 10
44.657283
 20
9.432635
 30
0.0
 10
44.418844
 20
8.738358
 30
0.0
 10
43.577925
 20
7.996509
 30
0.0
 10
41.878288
 20
7.137376
 30
0.0
 10
39.069171
 20
6.299044
 30
0.0
 10
35.446010
 20
5.468967
 30
0.0
 10
30.730716
 20
5.217801
 30
0.0
 10
25.735880
 20
5.058334
 30
0.0
 10
22.205452
 20
5.225636
 30
0.0
 10
20.665708
 20
5.298602
 30
0.0
 11
12.286199
 21
12.734818
 31
0.0
 11
19.365905
 21
10.975600
 31
0.0
 11
29.614496
 21
10.604075
 31
0.0
 11
38.842362
 21
11.772122
 31
0.0
 11
39.825672
 21
12.062672
 31
0.0
 11
40.709449
 21
12.364249
 31
0.0
 11
41.302362
 21
12.611564
 31
0.0
 11
41.776261
 21
12.832686
 31
0.0
 11
41.965646
 21
12.798644
 31
0.0
 11
42.000000
 21
12.486164
 31
0.0
 11
42.066447
 21
12.183533
 31
0.0
 11
42.323068
 21
12.037748
 31
0.0
 11
42.855778
 21
12.000000
 31
0.0
 11
43.969171
 21
11.862610
 31
0.0
 11
44.502832
 21
11.328085
 31
0.0
 11
44.640000
 21
10.212890
 31
0.0
 11
44.594625
 21
9.334675
 31
0.0
 11
44.390082
 21
8.794113
 31
0.0
 11
43.923744
 21
8.319980
 31
0.0
 11
42.137955
 21
7.323895
 31
0.0
 11
39.313335
 21
6.401547
 31
0.0
 11
35.640000
 21
5.615016
 31
0.0
 11
31.259628
 21
5.259215
 31
0.0
 11
25.285000
 21
5.132968
 31
0.0
 11
20.665708
 21
5.298602
 31
0.0
  0
LWPOLYLINE
  5
105
100
AcDbEntity
  8
0
 62
7
100
AcDbPolyline
 90
1
 70
1
 10
20.665708
 20
5.298602
 30
0.0
  0
SPLINE
  5
106
100
AcDbEntity
  8
0
 62
7
100
AcDbSpline
 70
0
 71
3
 72
28
 73
24
 74
22
 40
0.000000
 40
0.000000
 40
0.000000
 40
0.000000
 40
1.707341
 40
6.013641
 40
11.988047
 40
19.629146
 40
23.074393
 40
23.972736
 40
24.400891
 40
24.674633
 40
25.169865
 40
25.494284
 40
25.734432
 40
25.940529
 40
26.206047
 40
26.763539
 40
27.870595
 40
29.214708
 40
29.781090
 40
30.357242
 40
31.943642
 40
36.170149
 40
42.712566
 40
42.712566
 40
42.712566
 40
42.712566
 10
19.851064
 20
12.148937
 30
0.0
 10
19.819437
 20
12.717117
 30
0.0
 10
19.708040
 20
14.718378
 30
0.0
 10
19.701518
 20
18.723253
 30
0.0
 10
19.701869
 20
24.650600
 30
0.0
 10
19.560095
 20
30.520651
 30
0.0
 10
19.866691
 20
34.214276
 30
0.0
 10
19.771534
 20
36.068802
 30
0.0
 10
20.470436
 20
36.257390
 30
0.0
 10
20.263452
 20
36.733902
 30
0.0
 10
19.848706
 20
36.709100
 30
0.0
 10
19.503681
 20
36.737391
 30
0.0
 10
19.262180
 20
36.856828
 30
0.0
 10
19.155253
 20
37.104854
 30
0.0
 10
19.409946
 20
37.416072
 30
0.0
 10
20.089982
 20
37.404008
 30
0.0
 10
21.101434
 20
37.437148
 30
0.0
 10
21.984671
 20
37.503357
 30
0.0
 10
23.052500
 20
37.130649
 30
0.0
 10
22.175861
 20
36.257623
 30
0.0
 10
22.698038
 20
34.106749
 30
0.0
 10
22.128008
 20
30.007033
 30
0.0
 10
22.211515
 20
26.413449
 30
0.0
 10
22.262248
 20
24.230249
 30
0.0
 11
19.851064
 21
12.148937
 31
0.0
 11
19.764899
 21
13.854102
 31
0.0
 11
19.703442
 21
18.159963
 31
0.0
 11
19.680000
 21
24.134324
 31
0.0
 11
19.703721
 21
31.775386
 31
0.0
 11
19.807443
 21
35.219071
 31
0.0
 11
20.040000
 21
36.086790
 31
0.0
 11
20.378651
 21
36.348767
 31
0.0
 11
20.281632
 21
36.604740
 31
0.0
 11
19.800000
 21
36.720000
 31
0.0
 11
19.478518
 21
36.763556
 31
0.0
 11
19.272593
 21
36.887111
 31
0.0
 11
19.200000
 21
37.080000
 31
0.0
 11
19.346667
 21
37.301333
 31
0.0
 11
19.893333
 21
37.410667
 31
0.0
 11
21.000000
 21
37.440000
 31
0.0
 11
22.341606
 21
37.357937
 31
0.0
 11
22.837542
 21
37.084374
 31
0.0
 11
22.562248
 21
36.578248
 31
0.0
 11
22.426903
 21
34.997631
 31
0.0
 11
22.324249
 21
30.772372
 31
0.0
 11
22.262248
 21
24.230249
 31
0.0
  0
LWPOLYLINE
  5
107
100
AcDbEntity
  8
0
 62
7
100
AcDbPolyline
 90
3
 70
0
 10
22.262248
 20
24.230249
 30
0.0
 10
22.200000
 20
12.120000
 30
0.0
 10
21.111064
 20
12.048938
 30
0.0
  0
SPLINE
  5
108
100
AcDbEntity
  8
0
 62
7
100
AcDbSpline
 70
0
 71
3
 72
10
 73
6
 74
4
 40
0.000000
 40
0.000000
 40
0.000000
 40
0.000000
 40
0.572076
 40
1.026167
 40
1.273652
 40
1.273652
 40
1.273652
 40
1.273652
 10
21.111064
 20
12.048938
 30
0.0
 10
20.921098
 20
12.043311
 30
0.0
 10
20.580344
 20
12.033217
 30
0.0
 10
20.149247
 20
12.038785
 30
0.0
 10
19.928821
 20
12.120213
 30
0.0
 10
19.851064
 20
12.148938
 30
0.0
 11
21.111064
 21
12.048938
 31
0.0
 11
20.539121
 21
12.036588
 31
0.0
 11
20.086455
 21
12.072516
 31
0.0
 11
19.851064
 21
12.148938
 31
0.0
  0
LWPOLYLINE
  5
109
100
AcDbEntity
  8
0
 62
7
100
AcDbPolyline
 90
1
 70
1
 10
19.851064
 20
12.148938
 30
0.0
  0
SPLINE
  5
10a
100
AcDbEntity
  8
0
 62
7
100
AcDbSpline
 70
0
 71
3
 72
28
 73
24
 74
22
 40
0.000000
 40
0.000000
 40
0.000000
 40
0.000000
 40
1.711886
 40
6.030115
 40
12.021249
 40
19.684077
 40
23.138748
 40
24.039076
 40
24.454821
 40
24.698601
 40
25.190295
 40
25.514714
 40
25.754863
 40
25.960959
 40
26.226477
 40
26.783970
 40
27.891025
 40
29.235139
 40
29.801521
 40
30.377672
 40
31.964073
 40
36.190579
 40
42.732996
 40
42.732996
 40
42.732996
 40
42.732996
 10
31.371064
 20
12.148937
 30
0.0
 10
31.339454
 20
12.718624
 30
0.0
 10
31.228106
 20
14.725347
 30
0.0
 10
31.220490
 20
18.741989
 30
0.0
 10
31.227905
 20
24.681637
 30
0.0
 10
31.057841
 20
30.585637
 30
0.0
 10
31.410993
 20
34.260709
 30
0.0
 10
31.275052
 20
36.140210
 30
0.0
 10
31.987225
 20
36.304170
 30
0.0
 10
31.770622
 20
36.753485
 30
0.0
 10
31.367274
 20
36.704695
 30
0.0
 10
31.023725
 20
36.738099
 30
0.0
 10
30.782171
 20
36.856690
 30
0.0
 10
30.675256
 20
37.104899
 30
0.0
 10
30.929944
 20
37.416042
 30
0.0
 10
31.609984
 20
37.404029
 30
0.0
 10
32.621433
 20
37.437139
 30
0.0
 10
33.504672
 20
37.503359
 30
0.0
 10
34.572500
 20
37.130649
 30
0.0
 10
33.695863
 20
36.257623
 30
0.0
 10
34.218038
 20
34.106749
 30
0.0
 10
33.648008
 20
30.007033
 30
0.0
 10
33.731516
 20
26.413449
 30
0.0
 10
33.782249
 20
24.230249
 30
0.0
 11
31.371064
 21
12.148937
 31
0.0
 11
31.284899
 21
13.858653
 31
0.0
 11
31.223442
 21
18.176445
 31
0.0
 11
31.200000
 21
24.167532
 31
0.0
 11
31.223717
 21
31.830323
 31
0.0
 11
31.327435
 21
35.283437
 31
0.0
 11
31.560000
 21
36.153210
 31
0.0
 11
31.896776
 21
36.396984
 31
0.0
 11
31.801720
 21
36.621469
 31
0.0
 11
31.320000
 21
36.720000
 31
0.0
 11
30.998518
 21
36.763556
 31
0.0
 11
30.792592
 21
36.887111
 31
0.0
 11
30.720000
 21
37.080000
 31
0.0
 11
30.866667
 21
37.301333
 31
0.0
 11
31.413333
 21
37.410667
 31
0.0
 11
32.520000
 21
37.440000
 31
0.0
 11
33.861606
 21
37.357937
 31
0.0
 11
34.357542
 21
37.084374
 31
0.0
 11
34.082249
 21
36.578248
 31
0.0
 11
33.946904
 21
34.997631
 31
0.0
 11
33.844249
 21
30.772372
 31
0.0
 11
33.782249
 21
24.230249
 31
0.0
  0
LWPOLYLINE
  5
10b
100
AcDbEntity
  8
0
 62
7
100
AcDbPolyline
 90
3
 70
0
 10
33.782249
 20
24.230249
 30
0.0
 10
33.720000
 20
12.120000
 30
0.0
 10
32.631065
 20
12.048938
 30
0.0
  0
SPLINE
  5
10c
100
AcDbEntity
  8
0
 62
7
100
AcDbSpline
 70
0
 71
3
 72
10
 73
6
 74
4
 40
0.000000
 40
0.000000
 40
0.000000
 40
0.000000
 40
0.572076
 40
1.026167
 40
1.273652
 40
1.273652
 40
1.273652
 40
1.273652
 10
32.631065
 20
12.048938
 30
0.0
 10
32.441098
 20
12.043311
 30
0.0
 10
32.100344
 20
12.033217
 30
0.0
 10
31.669247
 20
12.038785
 30
0.0
 10
31.448821
 20
12.120213
 30
0.0
 10
31.371064
 20
12.148938
 30
0.0
 11
32.631065
 21
12.048938
 31
0.0
 11
32.059121
 21
12.036588
 31
0.0
 11
31.606455
 21
12.072516
 31
0.0
 11
31.371064
 21
12.148938
 31
0.0
  0
LWPOLYLINE
  5
10d
100
AcDbEntity
  8
0
 62
7
100
AcDbPolyline
 90
1
 70
1
 10
31.371064
 20
12.148938
 30
0.0
  0
SPLINE
  5
10e
100
AcDbEntity
  8
0
 62
7
100
AcDbSpline
 70
0
 71
3
 72
31
 73
27
 74
25
 40
0.000000
 40
0.000000
 40
0.000000
 40
0.000000
 40
1.542621
 40
5.416525
 40
10.784623
 40
17.814481
 40
20.887980
 40
21.766853
 40
22.083128
 40
22.231905
 40
22.667411
 40
23.036696
 40
23.354176
 40
23.574550
 40
23.790112
 40
24.379170
 40
25.515451
 40
26.714069
 40
27.310500
 40
27.581728
 40
27.765962
 40
27.920925
 40
28.050376
 40
29.352381
 40
33.115236
 40
39.159255
 40
39.159255
 40
39.159255
 40
39.159255
 10
13.611065
 20
13.108937
 30
0.0
 10
13.579417
 20
13.622175
 30
0.0
 10
13.468294
 20
15.424284
 30
0.0
 10
13.462500
 20
19.024572
 30
0.0
 10
13.455154
 20
24.424710
 30
0.0
 10
13.342302
 20
29.674978
 30
0.0
 10
13.598587
 20
33.183708
 30
0.0
 10
13.564380
 20
34.738663
 30
0.0
 10
14.130962
 20
34.993267
 30
0.0
 10
13.918869
 20
35.290206
 30
0.0
 10
13.571565
 20
35.246078
 30
0.0
 10
13.209836
 20
35.370273
 30
0.0
 10
12.959182
 20
35.496012
 30
0.0
 10
12.713179
 20
35.692801
 30
0.0
 10
13.005917
 20
36.015197
 30
0.0
 10
13.675746
 20
35.932883
 30
0.0
 10
14.643749
 20
36.038524
 30
0.0
 10
15.597696
 20
35.952151
 30
0.0
 10
16.333649
 20
35.986202
 30
0.0
 10
16.593398
 20
35.672049
 30
0.0
 10
16.536724
 20
35.466811
 30
0.0
 10
16.462459
 20
35.317190
 30
0.0
 10
15.904089
 20
35.191923
 30
0.0
 10
16.562855
 20
32.780549
 30
0.0
 10
15.814007
 20
29.688752
 30
0.0
 10
15.942937
 20
26.280513
 30
0.0
 10
16.022397
 20
24.180000
 30
0.0
 11
13.611064
 21
13.108936
 31
0.0
 11
13.524899
 21
14.649149
 31
0.0
 11
13.463442
 21
18.522566
 31
0.0
 11
13.440000
 21
23.890612
 31
0.0
 11
13.463268
 21
30.920432
 31
0.0
 11
13.574874
 21
33.991904
 31
0.0
 11
13.837520
 21
34.830613
 31
0.0
 11
14.060239
 21
35.055172
 31
0.0
 11
13.981522
 21
35.181419
 31
0.0
 11
13.557320
 21
35.280000
 31
0.0
 11
13.202273
 21
35.381556
 31
0.0
 11
12.922942
 21
35.532444
 31
0.0
 11
12.779800
 21
35.700000
 31
0.0
 11
12.902684
 21
35.877106
 31
0.0
 11
13.484067
 21
35.971886
 31
0.0
 11
14.620000
 21
36.000000
 31
0.0
 11
15.818271
 21
35.971180
 31
0.0
 11
16.404691
 21
35.862360
 31
0.0
 11
16.560000
 21
35.640000
 31
0.0
 11
16.527440
 21
35.458667
 31
0.0
 11
16.442078
 21
35.329333
 31
0.0
 11
16.322397
 21
35.280000
 31
0.0
 11
16.185749
 21
33.985185
 31
0.0
 11
16.084087
 21
30.223703
 31
0.0
 11
16.022397
 21
24.180000
 31
0.0
  0
LWPOLYLINE
  5
10f
100
AcDbEntity
  8
0
 62
7
100
AcDbPolyline
 90
3
 70
0
 10
16.022397
 20
24.180000
 30
0.0
 10
15.959997
 20
13.080000
 30
0.0
 10
14.871061
 20
13.008938
 30
0.0
  0
SPLINE
  5
110
100
AcDbEntity
  8
0
 62
7
100
AcDbSpline
 70
0
 71
3
 72
10
 73
6
 74
4
 40
0.000000
 40
0.000000
 40
0.000000
 40
0.000000
 40
0.572077
 40
1.026167
 40
1.273653
 40
1.273653
 40
1.273653
 40
1.273653
 10
14.871061
 20
13.008938
 30
0.0
 10
14.681095
 20
13.003309
 30
0.0
 10
14.340341
 20
12.993213
 30
0.0
 10
13.909244
 20
12.998783
 30
0.0
 10
13.688818
 20
13.080213
 30
0.0
 10
13.611061
 20
13.108938
 30
0.0
 11
14.871061
 21
13.008938
 31
0.0
 11
14.299118
 21
12.996585
 31
0.0
 11
13.846452
 21
13.032514
 31
0.0
 11
13.611061
 21
13.108938
 31
0.0
  0
LWPOLYLINE
  5
111
100
AcDbEntity
  8
0
 62
7
100
AcDbPolyline
 90
1
 70
1
 10
13.611061
 20
13.108938
 30
0.0
  0
SPLINE
  5
112
100
AcDbEntity
  8
0
 62
7
100
AcDbSpline
 70
0
 71
3
 72
94
 73
90
 74
88
 40
0.000000
 40
0.000000
 40
0.000000
 40
0.000000
 40
1.010975
 40
4.347158
 40
10.832381
 40
18.023137
 40
21.061346
 40
21.895985
 40
22.216756
 40
22.329990
 40
22.744380
 40
23.139581
 40
23.397237
 40
23.689514
 40
23.936080
 40
24.142415
 40
24.309243
 40
24.418707
 40
24.744379
 40
25.271471
 40
27.178566
 40
29.699165
 40
32.484017
 40
33.828671
 40
34.571116
 40
34.871343
 40
35.437493
 40
36.385461
 40
37.105384
 40
37.468059
 40
38.124830
 40
39.006987
 40
40.044797
 40
40.569413
 40
40.878818
 40
41.148810
 40
41.499048
 40
41.960778
 40
42.459703
 40
42.746013
 40
43.036728
 40
43.356843
 40
43.805729
 40
44.675650
 40
45.464462
 40
45.943867
 40
46.183066
 40
46.369476
 40
46.629911
 40
46.936865
 40
47.271582
 40
47.510588
 40
47.775080
 40
48.491296
 40
49.458075
 40
50.104334
 40
50.476753
 40
50.902553
 40
51.453942
 40
51.800209
 40
51.907454
 40
52.355671
 40
52.979266
 40
53.747136
 40
55.386815
 40
60.381341
 40
66.547932
 40
72.464324
 40
75.822743
 40
78.996723
 40
81.065930
 40
81.632757
 40
81.978818
 40
82.422057
 40
82.860145
 40
83.374017
 40
83.855153
 40
84.248921
 40
84.539543
 40
84.693738
 40
86.082949
 40
89.915607
 40
95.713879
 40
102.943813
 40
106.107390
 40
106.915050
 40
107.532888
 40
108.282233
 40
108.897060
 40
108.897060
 40
108.897060
 40
108.897060
 10
37.740000
 20
13.118948
 30
0.0
 10
37.673253
 20
13.449761
 30
0.0
 10
37.386242
 20
14.872248
 30
0.0
 10
37.527907
 20
18.512782
 30
0.0
 10
37.436954
 20
24.138847
 30
0.0
 10
37.343649
 20
29.818660
 30
0.0
 10
37.592651
 20
33.347356
 30
0.0
 10
37.574426
 20
34.878594
 30
0.0
 10
38.174505
 20
35.088656
 30
0.0
 10
37.960774
 20
35.353672
 30
0.0
 10
37.617821
 20
35.241522
 30
0.0
 10
37.268042
 20
35.278757
 30
0.0
 10
36.977384
 20
35.459506
 30
0.0
 10
36.947096
 20
35.751588
 30
0.0
 10
36.987583
 20
35.985600
 30
0.0
 10
37.073620
 20
36.202749
 30
0.0
 10
37.266618
 20
36.213103
 30
0.0
 10
37.330705
 20
36.437683
 30
0.0
 10
37.024769
 20
36.660668
 30
0.0
 10
36.439969
 20
37.316230
 30
0.0
 10
34.852428
 20
38.035760
 30
0.0
 10
32.585217
 20
38.726097
 30
0.0
 10
30.336818
 20
38.973823
 30
0.0
 10
28.777555
 20
39.162681
 30
0.0
 10
27.903695
 20
39.171132
 30
0.0
 10
27.548844
 20
39.593974
 30
0.0
 10
27.017904
 20
39.919835
 30
0.0
 10
26.220757
 20
39.877457
 30
0.0
 10
25.604368
 20
39.590529
 30
0.0
 10
25.134513
 20
39.239207
 30
0.0
 10
24.494559
 20
39.128713
 30
0.0
 10
23.643842
 20
38.987811
 30
0.0
 10
22.864348
 20
38.947941
 30
0.0
 10
22.170738
 20
38.896703
 30
0.0
 10
21.939321
 20
39.210390
 30
0.0
 10
21.761726
 20
39.470433
 30
0.0
 10
21.394852
 20
39.579030
 30
0.0
 10
20.961236
 20
39.604224
 30
0.0
 10
20.553169
 20
39.608472
 30
0.0
 10
20.178339
 20
39.449841
 30
0.0
 10
20.169515
 20
39.124566
 30
0.0
 10
20.083999
 20
38.756000
 30
0.0
 10
19.489725
 20
38.597409
 30
0.0
 10
18.823314
 20
38.496697
 30
0.0
 10
18.117166
 20
38.444690
 30
0.0
 10
17.589845
 20
38.402515
 30
0.0
 10
17.333661
 20
38.584402
 30
0.0
 10
17.203407
 20
38.779661
 30
0.0
 10
16.947299
 20
38.854129
 30
0.0
 10
16.652486
 20
38.890072
 30
0.0
 10
16.355321
 20
38.871388
 30
0.0
 10
16.096102
 20
38.699711
 30
0.0
 10
16.104169
 20
38.255312
 30
0.0
 10
15.538760
 20
37.799554
 30
0.0
 10
14.789712
 20
37.542189
 30
0.0
 10
14.114293
 20
37.705349
 30
0.0
 10
13.772369
 20
38.166839
 30
0.0
 10
13.310458
 20
37.822811
 30
0.0
 10
13.098028
 20
37.500202
 30
0.0
 10
13.184932
 20
36.986752
 30
0.0
 10
12.835953
 20
37.056810
 30
0.0
 10
12.748212
 20
37.490156
 30
0.0
 10
12.445197
 20
38.120170
 30
0.0
 10
13.527909
 20
38.726876
 30
0.0
 10
15.701650
 20
39.443211
 30
0.0
 10
20.049262
 20
40.280795
 30
0.0
 10
25.679507
 20
40.629232
 30
0.0
 10
30.856496
 20
40.517000
 30
0.0
 10
34.957036
 20
39.868847
 30
0.0
 10
37.768170
 20
39.285885
 30
0.0
 10
39.626686
 20
38.745788
 30
0.0
 10
40.534925
 20
38.308172
 30
0.0
 10
40.802808
 20
37.896764
 30
0.0
 10
40.667961
 20
37.479038
 30
0.0
 10
40.586462
 20
37.028844
 30
0.0
 10
40.527985
 20
36.552553
 30
0.0
 10
40.522534
 20
36.086204
 30
0.0
 10
40.496918
 20
35.708619
 30
0.0
 10
40.465433
 20
35.406986
 30
0.0
 10
39.949958
 20
35.027144
 30
0.0
 10
40.485466
 20
32.891909
 30
0.0
 10
39.898538
 20
29.510004
 30
0.0
 10
40.158982
 20
23.790240
 30
0.0
 10
40.052273
 20
18.233252
 30
0.0
 10
40.048243
 20
14.830221
 30
0.0
 10
39.867889
 20
12.998190
 30
0.0
 10
39.021711
 20
13.000957
 30
0.0
 10
38.390136
 20
12.961861
 30
0.0
 10
37.941981
 20
13.070146
 30
0.0
 10
37.740000
 20
13.118950
 30
0.0
 11
37.740000
 21
13.118948
 31
0.0
 11
37.558356
 21
14.113471
 31
0.0
 11
37.465844
 21
17.448370
 31
0.0
 11
37.440000
 21
23.933542
 31
0.0
 11
37.462456
 21
31.124263
 31
0.0
 11
37.578244
 21
34.160265
 31
0.0
 11
37.860000
 21
34.945909
 31
0.0
 11
38.100804
 21
35.157821
 31
0.0
 11
38.033733
 21
35.249054
 31
0.0
 11
37.620000
 21
35.272367
 31
0.0
 11
37.227798
 21
35.320960
 31
0.0
 11
37.020565
 21
35.474066
 31
0.0
 11
36.960000
 21
35.760000
 31
0.0
 11
37.001111
 21
36.003114
 31
0.0
 11
37.108889
 21
36.179063
 31
0.0
 11
37.260000
 21
36.249754
 31
0.0
 11
37.296000
 21
36.353128
 31
0.0
 11
37.102000
 21
36.614712
 31
0.0
 11
36.720000
 21
36.977895
 31
0.0
 11
35.053978
 21
37.906002
 31
0.0
 11
32.639833
 21
38.630795
 31
0.0
 11
29.883788
 21
39.030313
 31
0.0
 11
28.544974
 21
39.155510
 31
0.0
 11
27.818733
 21
39.309774
 31
0.0
 11
27.600000
 21
39.515424
 31
0.0
 11
27.116050
 21
39.809224
 31
0.0
 11
26.168084
 21
39.807218
 31
0.0
 11
25.511926
 21
39.510999
 31
0.0
 11
25.205389
 21
39.317173
 31
0.0
 11
24.572198
 21
39.142769
 31
0.0
 11
23.699806
 21
39.011876
 31
0.0
 11
22.665079
 21
38.931944
 31
0.0
 11
22.144100
 21
38.993607
 31
0.0
 11
21.934129
 21
39.220860
 31
0.0
 11
21.759656
 21
39.426906
 31
0.0
 11
21.433911
 21
39.555580
 31
0.0
 11
20.974323
 21
39.600000
 31
0.0
 11
20.476895
 21
39.561379
 31
0.0
 11
20.227967
 21
39.419928
 31
0.0
 11
20.160000
 21
39.137270
 31
0.0
 11
20.056826
 21
38.834237
 31
0.0
 11
19.649484
 21
38.645634
 31
0.0
 11
18.791248
 21
38.503525
 31
0.0
 11
18.005386
 21
38.435371
 31
0.0
 11
17.527164
 21
38.469020
 31
0.0
 11
17.331248
 21
38.606255
 31
0.0
 11
17.205805
 21
38.744141
 31
0.0
 11
16.964653
 21
38.842487
 31
0.0
 11
16.660000
 21
38.880000
 31
0.0
 11
16.328527
 21
38.833505
 31
0.0
 11
16.139819
 21
38.686831
 31
0.0
 11
16.080000
 21
38.429193
 31
0.0
 11
15.601979
 21
37.895843
 31
0.0
 11
14.675861
 21
37.618415
 31
0.0
 11
14.063560
 21
37.825147
 31
0.0
 11
13.766665
 21
38.049980
 31
0.0
 11
13.387162
 21
37.856893
 31
0.0
 11
13.148758
 21
37.359708
 31
0.0
 11
13.080419
 21
37.020251
 31
0.0
 11
12.974386
 21
37.036321
 31
0.0
 11
12.744338
 21
37.420998
 31
0.0
 11
12.614817
 21
38.030994
 31
0.0
 11
13.200944
 21
38.527058
 31
0.0
 11
14.735073
 21
39.105845
 31
0.0
 11
19.628952
 21
40.103464
 31
0.0
 11
25.779553
 21
40.547251
 31
0.0
 11
31.691930
 21
40.329341
 31
0.0
 11
35.013338
 21
39.832122
 31
0.0
 11
38.115904
 21
39.162618
 31
0.0
 11
40.082390
 21
38.518761
 31
0.0
 11
40.564494
 21
38.220652
 31
0.0
 11
40.736971
 21
37.920636
 31
0.0
 11
40.678864
 21
37.481222
 31
0.0
 11
40.594439
 21
37.051346
 31
0.0
 11
40.536437
 21
36.540758
 31
0.0
 11
40.517414
 21
36.059998
 31
0.0
 11
40.491124
 21
35.667109
 31
0.0
 11
40.414072
 21
35.386887
 31
0.0
 11
40.302938
 21
35.279998
 31
0.0
 11
40.185578
 21
33.895753
 31
0.0
 11
40.108018
 21
30.063880
 31
0.0
 11
40.080000
 21
24.265676
 31
0.0
 11
40.056810
 21
17.035778
 31
0.0
 11
39.949257
 21
13.874030
 31
0.0
 11
39.700370
 21
13.105676
 31
0.0
 11
39.092539
 21
12.994927
 31
0.0
 11
38.343211
 21
13.000001
 31
0.0
 11
37.740000
 21
13.118950
 31
0.0
  0
LWPOLYLINE
  5
113
100
AcDbEntity
  8
0
 62
7
100
AcDbPolyline
 90
1
 70
1
 10
37.740000
 20
13.118950
 30
0.0
  0
SPLINE
  5
114
100
AcDbEntity
  8
0
 62
7
100
AcDbSpline
 70
0
 71
3
 72
13
 73
9
 74
7
 40
0.000000
 40
0.000000
 40
0.000000
 40
0.000000
 40
0.304006
 40
0.536167
 40
0.682368
 40
1.004530
 40
1.827099
 40
3.060946
 40
3.060946
 40
3.060946
 40
3.060946
 10
24.720000
 20
14.040000
 30
0.0
 10
24.727930
 20
14.138630
 30
0.0
 10
24.741917
 20
14.312580
 30
0.0
 10
24.795732
 20
14.559033
 30
0.0
 10
25.030961
 20
14.653197
 30
0.0
 10
25.128543
 20
15.122489
 30
0.0
 10
25.186309
 20
15.879525
 30
0.0
 10
25.194866
 20
16.572481
 30
0.0
 10
25.200000
 20
16.988254
 30
0.0
 11
24.720000
 21
14.040000
 31
0.0
 11
24.752889
 21
14.342222
 31
0.0
 11
24.839111
 21
14.557778
 31
0.0
 11
24.960000
 21
14.640000
 31
0.0
 11
25.086066
 21
14.936473
 31
0.0
 11
25.169699
 21
15.754780
 31
0.0
 11
25.200000
 21
16.988254
 31
0.0
  0
LWPOLYLINE
  5
115
100
AcDbEntity
  8
0
 62
7
100
AcDbPolyline
 90
3
 70
0
 10
25.200000
 20
16.988254
 30
0.0
 10
25.200000
 20
19.336507
 30
0.0
 10
25.920000
 20
19.761823
 30
0.0
  0
SPLINE
  5
116
100
AcDbEntity
  8
0
 62
7
100
AcDbSpline
 70
0
 71
3
 72
16
 73
12
 74
10
 40
0.000000
 40
0.000000
 40
0.000000
 40
0.000000
 40
0.777892
 40
1.078500
 40
1.744877
 40
2.216093
 40
2.610386
 40
2.978422
 40
3.328069
 40
3.872211
 40
5.448250
 40
5.448250
 40
5.448250
 40
5.448250
 10
25.920000
 20
19.761823
 30
0.0
 10
26.193272
 20
19.869003
 30
0.0
 10
26.572148
 20
20.017601
 30
0.0
 10
26.554669
 20
20.730960
 30
0.0
 10
25.886164
 20
20.609039
 30
0.0
 10
25.418533
 20
20.665607
 30
0.0
 10
25.015430
 20
20.830268
 30
0.0
 10
24.773425
 20
21.084112
 30
0.0
 10
24.540753
 20
21.584034
 30
0.0
 10
25.710384
 20
21.573362
 30
0.0
 10
26.319092
 20
21.588642
 30
0.0
 10
26.771575
 20
21.600000
 30
0.0
 11
25.920000
 21
19.761823
 31
0.0
 11
26.537093
 21
20.235440
 31
0.0
 11
26.515831
 21
20.535295
 31
0.0
 11
25.857732
 21
20.640000
 31
0.0
 11
25.389531
 21
20.693219
 31
0.0
 11
25.029109
 21
20.853106
 31
0.0
 11
24.775696
 21
21.120000
 31
0.0
 11
24.666613
 21
21.452195
 31
0.0
 11
25.195671
 21
21.579431
 31
0.0
 11
26.771575
 21
21.600000
 31
0.0
  0
LWPOLYLINE
  5
117
100
AcDbEntity
  8
0
 62
7
100
AcDbPolyline
 90
3
 70
0
 10
26.771575
 20
21.600000
 30
0.0
 10
29.067218
 20
21.600000
 30
0.0
 10
28.693608
 20
21.066598
 30
0.0
  0
SPLINE
  5
118
100
AcDbEntity
  8
0
 62
7
100
AcDbSpline
 70
0
 71
3
 72
22
 73
18
 74
16
 40
0.000000
 40
0.000000
 40
0.000000
 40
0.000000
 40
0.621469
 40
1.705233
 40
3.528745
 40
5.094912
 40
6.116037
 40
6.500749
 40
6.646950
 40
6.879110
 40
7.183117
 40
7.609937
 40
8.166786
 40
9.591874
 40
11.016961
 40
11.573810
 40
12.000634
 40
12.000634
 40
12.000634
 40
12.000634
 10
28.693608
 20
21.066598
 30
0.0
 10
28.608882
 20
20.876035
 30
0.0
 10
28.376404
 20
20.353155
 30
0.0
 10
28.345901
 20
19.153957
 30
0.0
 10
28.311304
 20
17.683175
 30
0.0
 10
28.325239
 20
16.179178
 30
0.0
 10
28.405480
 20
15.251616
 30
0.0
 10
28.467882
 20
14.662520
 30
0.0
 10
28.724465
 20
14.559047
 30
0.0
 10
28.776686
 20
14.310392
 30
0.0
 10
28.811329
 20
14.013601
 30
0.0
 10
28.787282
 20
13.500133
 30
0.0
 10
27.824064
 20
13.436177
 30
0.0
 10
26.758517
 20
13.445038
 30
0.0
 10
25.700060
 20
13.429811
 30
0.0
 10
24.727911
 20
13.508040
 30
0.0
 10
24.722394
 20
13.879026
 30
0.0
 10
24.720000
 20
14.040000
 30
0.0
 11
28.693608
 21
21.066598
 31
0.0
 11
28.468350
 21
20.487389
 31
0.0
 11
28.352663
 21
19.409817
 31
0.0
 11
28.320000
 21
17.586598
 31
0.0
 11
28.349563
 21
16.020710
 31
0.0
 11
28.432458
 21
15.002955
 31
0.0
 11
28.560000
 21
14.640000
 31
0.0
 11
28.680889
 21
14.557778
 31
0.0
 11
28.767111
 21
14.342222
 31
0.0
 11
28.800000
 21
14.040000
 31
0.0
 11
28.719111
 21
13.620915
 31
0.0
 11
28.184889
 21
13.463791
 31
0.0
 11
26.760000
 21
13.440000
 31
0.0
 11
25.335111
 21
13.463789
 31
0.0
 11
24.800889
 21
13.620911
 31
0.0
 11
24.720000
 21
14.040000
 31
0.0
  0
LWPOLYLINE
  5
119
100
AcDbEntity
  8
0
 62
7
100
AcDbPolyline
 90
1
 70
1
 10
24.720000
 20
14.040000
 30
0.0
  0
SPLINE
  5
11a
100
AcDbEntity
  8
0
 62
7
100
AcDbSpline
 70
0
 71
3
 72
13
 73
9
 74
7
 40
0.000000
 40
0.000000
 40
0.000000
 40
0.000000
 40
0.776767
 40
1.533214
 40
2.512207
 40
5.682302
 40
9.677289
 40
14.789107
 40
14.789107
 40
14.789107
 40
14.789107
 10
10.563277
 20
38.461585
 30
0.0
 10
10.585490
 20
38.724742
 30
0.0
 10
10.629334
 20
39.244171
 30
0.0
 10
11.173443
 20
39.932248
 30
0.0
 10
12.585779
 20
40.770466
 30
0.0
 10
15.144169
 20
41.731028
 30
0.0
 10
19.160334
 20
42.568254
 30
0.0
 10
22.183206
 20
42.862914
 30
0.0
 10
23.880000
 20
43.028312
 30
0.0
 11
10.563277
 21
38.461585
 31
0.0
 11
10.703895
 21
39.225518
 31
0.0
 11
11.148759
 21
39.837326
 31
0.0
 11
11.961007
 21
40.383843
 31
0.0
 11
14.903257
 21
41.563956
 31
0.0
 11
18.803401
 21
42.429282
 31
0.0
 11
23.880000
 21
43.028312
 31
0.0
  0
LWPOLYLINE
  5
11b
100
AcDbEntity
  8
0
 62
7
100
AcDbPolyline
 90
3
 70
0
 10
23.880000
 20
43.028312
 30
0.0
 10
27.480000
 20
43.330762
 30
0.0
 10
26.392136
 20
43.977633
 30
0.0
  0
SPLINE
  5
11c
100
AcDbEntity
  8
0
 62
7
100
AcDbSpline
 70
0
 71
3
 72
13
 73
9
 74
7
 40
0.000000
 40
0.000000
 40
0.000000
 40
0.000000
 40
2.034414
 40
3.854544
 40
6.268686
 40
8.076250
 40
9.404827
 40
10.610543
 40
10.610543
 40
10.610543
 40
10.610543
 10
26.392136
 20
43.977633
 30
0.0
 10
25.802144
 20
44.319071
 30
0.0
 10
24.684303
 20
44.965984
 30
0.0
 10
22.619936
 20
45.435753
 30
0.0
 10
20.601106
 20
45.446301
 30
0.0
 10
18.752866
 20
45.429796
 30
0.0
 10
17.305280
 20
45.290352
 30
0.0
 10
16.493652
 20
45.050007
 30
0.0
 10
16.107512
 20
44.935660
 30
0.0
 11
26.392136
 21
43.977633
 31
0.0
 11
24.579952
 21
44.902204
 31
0.0
 11
22.811776
 21
45.333973
 31
0.0
 11
20.400000
 21
45.440845
 31
0.0
 11
18.592943
 21
45.398011
 31
0.0
 11
17.273473
 21
45.242722
 31
0.0
 11
16.107512
 21
44.935660
 31
0.0
  0
LWPOLYLINE
  5
11d
100
AcDbEntity
  8
0
 62
7
100
AcDbPolyline
 90
3
 70
0
 10
16.107512
 20
44.935660
 30
0.0
 10
14.575024
 20
44.430110
 30
0.0
 10
15.387512
 20
45.271364
 30
0.0
  0
SPLINE
  5
11e
100
AcDbEntity
  8
0
 62
7
100
AcDbSpline
 70
0
 71
3
 72
34
 73
30
 74
28
 40
0.000000
 40
0.000000
 40
0.000000
 40
0.000000
 40
1.934356
 40
4.506847
 40
7.004669
 40
10.068628
 40
13.841597
 40
16.893727
 40
20.698036
 40
24.431284
 40
28.072905
 40
30.128478
 40
31.832660
 40
32.620250
 40
32.805220
 40
33.211813
 40
33.764565
 40
35.781740
 40
38.677135
 40
41.847852
 40
46.544687
 40
52.423367
 40
57.158362
 40
60.309457
 40
62.931075
 40
64.885524
 40
65.550593
 40
65.984658
 40
66.136558
 40
66.136558
 40
66.136558
 40
66.136558
 10
15.387512
 20
45.271364
 30
0.0
 10
15.898428
 20
45.667689
 30
0.0
 10
17.088808
 20
46.591084
 30
0.0
 10
19.216370
 20
47.579447
 30
0.0
 10
21.749036
 20
48.589444
 30
0.0
 10
24.882112
 20
48.853756
 30
0.0
 10
28.169109
 20
48.866448
 30
0.0
 10
31.722287
 20
48.509068
 30
0.0
 10
35.021730
 20
47.155905
 30
0.0
 10
38.202206
 20
45.127410
 30
0.0
 10
40.379475
 20
42.947200
 30
0.0
 10
41.903375
 20
40.749240
 30
0.0
 10
42.407688
 20
39.805095
 30
0.0
 10
43.150333
 20
38.433160
 30
0.0
 10
42.620635
 20
38.529217
 30
0.0
 10
42.307691
 20
38.716362
 30
0.0
 10
41.463285
 20
39.260662
 30
0.0
 10
39.794677
 20
39.995542
 30
0.0
 10
37.210094
 20
40.773006
 30
0.0
 10
33.717144
 20
41.623996
 30
0.0
 10
29.122378
 20
41.891570
 30
0.0
 10
24.026648
 20
41.900600
 30
0.0
 10
19.427324
 20
41.643877
 30
0.0
 10
16.006808
 20
40.846755
 30
0.0
 10
13.541499
 20
40.106327
 30
0.0
 10
11.985499
 20
39.222508
 30
0.0
 10
11.173846
 20
38.683708
 30
0.0
 10
10.803973
 20
38.379945
 30
0.0
 10
10.612828
 20
38.444779
 30
0.0
 10
10.563278
 20
38.461585
 30
0.0
 11
15.387512
 21
45.271364
 31
0.0
 11
16.953143
 21
46.407380
 31
0.0
 11
19.248999
 21
47.567879
 31
0.0
 11
21.600000
 21
48.411625
 31
0.0
 11
24.639682
 21
48.796564
 31
0.0
 11
28.412651
 21
48.794570
 31
0.0
 11
31.440000
 21
48.406428
 31
0.0
 11
34.991891
 21
47.043770
 31
0.0
 11
38.126936
 21
45.016793
 31
0.0
 11
40.687505
 21
42.427412
 31
0.0
 11
41.868969
 21
40.745294
 31
0.0
 11
42.703449
 21
39.259401
 31
0.0
 11
42.895610
 21
38.495613
 31
0.0
 11
42.712152
 21
38.519212
 31
0.0
 11
42.345902
 21
38.695788
 31
0.0
 11
41.876155
 21
38.987116
 31
0.0
 11
40.050848
 21
39.845748
 31
0.0
 11
37.291506
 21
40.722872
 31
0.0
 11
34.200000
 21
41.427170
 31
0.0
 11
29.520402
 21
41.829192
 31
0.0
 11
23.641729
 21
41.838626
 31
0.0
 11
18.922570
 21
41.451688
 31
0.0
 11
15.845596
 21
40.772255
 31
0.0
 11
13.361929
 21
39.933044
 31
0.0
 11
11.648025
 21
38.993679
 31
0.0
 11
11.100432
 21
38.616242
 31
0.0
 11
10.710726
 21
38.425083
 31
0.0
 11
10.563278
 21
38.461585
 31
0.0
  0
LWPOLYLINE
  5
11f
100
AcDbEntity
  8
0
 62
7
100
AcDbPolyline
 90
1
 70
1
 10
10.563278
 20
38.461585
 30
0.0
  0
ENDSEC
  0
SECTION
  2
OBJECTS
  0
DICTIONARY
  5
C
330
0
100
AcDbDictionary
  3
ACAD_GROUP
350
D
  3
ACAD_MLINESTYLE
350
17
  0
DICTIONARY
  5
D
330
C
100
AcDbDictionary
  0
DICTIONARY
  5
1A
330
C
100
AcDbDictionary
  0
DICTIONARY
  5
17
330
C
100
AcDbDictionary
  3
STANDARD
350
18
  0
DICTIONARY
  5
19
330
C
100
AcDbDictionary
  0
ENDSEC
  0
EOF
