  0
SECTION
  2
HEADER
  9
$ACADVER
  1
AC1014
  9
$HANDSEED
  5
FFFF
  9
$MEASUREMENT
 70
     1
  0
ENDSEC
  0
SECTION
  2
TABLES
  0
TABLE
  2
VPORT
  5
8
330
0
100
AcDbSymbolTable
 70
     4
  0
VPORT
  5
2E
330
8
100
AcDbSymbolTableRecord
100
AcDbViewportTableRecord
  2
*ACTIVE
 70
     0
 10
0.0
 20
0.0
 11
1.0
 21
1.0
 12
210.0
 22
148.5
 13
0.0
 23
0.0
 14
10.0
 24
10.0
 15
10.0
 25
10.0
 16
0.0
 26
0.0
 36
1.0
 17
0.0
 27
0.0
 37
0.0
 40
341.0
 41
1.24
 42
50.0
 43
0.0
 44
0.0
 50
0.0
 51
0.0
 71
     0
 72
   100
 73
     1
 74
     3
 75
     0
 76
     0
 77
     0
 78
     0
  0
ENDTAB
  0
TABLE
  2
LTYPE
  5
5
330
0
100
AcDbSymbolTable
 70
     1
  0
LTYPE
  5
14
330
5
100
AcDbSymbolTableRecord
100
AcDbLinetypeTableRecord
  2
BYBLOCK
 70
     0
  3

 72
    65
 73
     0
 40
0.0
  0
LTYPE
  5
15
330
5
100
AcDbSymbolTableRecord
100
AcDbLinetypeTableRecord
  2
BYLAYER
 70
     0
  3

 72
    65
 73
     0
 40
0.0
  0
LTYPE
  5
16
330
5
100
AcDbSymbolTableRecord
100
AcDbLinetypeTableRecord
  2
CONTINUOUS
 70
     0
  3
Solid line
 72
    65
 73
     0
 40
0.0
  0
ENDTAB
  0
TABLE
  2
LAYER
  5
2
100
AcDbSymbolTable
 70
1
  0
LAYER
  5
50
100
AcDbSymbolTableRecord
100
AcDbLayerTableRecord
  2
0
 70
0
  6
CONTINUOUS
  0
ENDTAB
  0
TABLE
  2
STYLE
  5
3
330
0
100
AcDbSymbolTable
 70
     1
  0
STYLE
  5
11
330
3
100
AcDbSymbolTableRecord
100
AcDbTextStyleTableRecord
  2
STANDARD
 70
     0
 40
0.0
 41
1.0
 50
0.0
 71
     0
 42
2.5
  3
txt
  4

  0
ENDTAB
  0
TABLE
  2
VIEW
  5
6
330
0
100
AcDbSymbolTable
 70
     0
  0
ENDTAB
  0
TABLE
  2
UCS
  5
7
330
0
100
AcDbSymbolTable
 70
     0
  0
ENDTAB
  0
TABLE
  2
APPID
  5
9
330
0
100
AcDbSymbolTable
 70
     2
  0
APPID
  5
12
330
9
100
AcDbSymbolTableRecord
100
AcDbRegAppTableRecord
  2
ACAD
 70
     0
  0
ENDTAB
  0
TABLE
  2
DIMSTYLE
  5
A
330
0
100
AcDbSymbolTable
 70
     1
  0
DIMSTYLE
105
27
330
A
100
AcDbSymbolTableRecord
100
AcDbDimStyleTableRecord
  2
ISO-25
 70
     0
  3

  4

  5

  6

  7

 40
1.0
 41
2.5
 42
0.625
 43
3.75
 44
1.25
 45
0.0
 46
0.0
 47
0.0
 48
0.0
140
2.5
141
2.5
142
0.0
143
0.03937007874016
144
1.0
145
0.0
146
1.0
147
0.625
 71
     0
 72
     0
 73
     0
 74
     0
 75
     0
 76
     0
 77
     1
 78
     8
170
     0
171
     3
172
     1
173
     0
174
     0
175
     0
176
     0
177
     0
178
     0
270
     2
271
     2
272
     2
273
     2
274
     3
340
11
275
     0
280
     0
281
     0
282
     0
283
     0
284
     8
285
     0
286
     0
287
     3
288
     0
  0
ENDTAB
  0
TABLE
  2
BLOCK_RECORD
  5
1
330
0
100
AcDbSymbolTable
 70
     1
  0
BLOCK_RECORD
  5
1F
330
1
100
AcDbSymbolTableRecord
100
AcDbBlockTableRecord
  2
*MODEL_SPACE
  0
BLOCK_RECORD
  5
1B
330
1
100
AcDbSymbolTableRecord
100
AcDbBlockTableRecord
  2
*PAPER_SPACE
  0
ENDTAB
  0
ENDSEC
  0
SECTION
  2
BLOCKS
  0
BLOCK
  5
20
330
1F
100
AcDbEntity
  8
0
100
AcDbBlockBegin
  2
*MODEL_SPACE
 70
     0
 10
0.0
 20
0.0
 30
0.0
  3
*MODEL_SPACE
  1

  0
ENDBLK
  5
21
330
1F
100
AcDbEntity
  8
0
100
AcDbBlockEnd
  0
BLOCK
  5
1C
330
1B
100
AcDbEntity
 67
     1
  8
0
100
AcDbBlockBegin
  2
*PAPER_SPACE
  1

  0
ENDBLK
  5
1D
330
1B
100
AcDbEntity
 67
     1
  8
0
100
AcDbBlockEnd
  0
ENDSEC
  0
SECTION
  2
ENTITIES
  0
SPLINE
  5
100
100
AcDbEntity
  8
0
 62
7
100
AcDbSpline
 70
0
 71
3
 72
40
 73
36
 74
34
 40
0.000000
 40
0.000000
 40
0.000000
 40
0.000000
 40
2.405020
 40
4.151520
 40
4.861844
 40
5.069722
 40
5.578642
 40
6.285817
 40
7.955825
 40
9.631681
 40
10.501105
 40
10.853386
 40
11.707647
 40
12.881455
 40
18.819021
 40
24.196667
 40
29.142977
 40
31.062629
 40
32.776078
 40
34.695731
 40
39.299022
 40
44.291462
 40
49.420507
 40
50.041275
 40
50.515277
 40
50.739900
 40
51.079725
 40
51.950909
 40
53.168434
 40
54.390479
 40
55.274151
 40
55.634339
 40
56.352473
 40
58.086502
 40
60.461564
 40
60.461564
 40
60.461564
 40
60.461564
 10
13.591839
 20
1.447124
 30
0.0
 10
12.779321
 20
1.666056
 30
0.0
 10
11.376760
 20
2.043974
 30
0.0
 10
10.235743
 20
2.716883
 30
0.0
 10
8.847619
 20
2.763614
 30
0.0
 10
9.099007
 20
3.252593
 30
0.0
 10
9.378506
 20
3.603651
 30
0.0
 10
9.997103
 20
4.351599
 30
0.0
 10
10.919754
 20
5.418001
 30
0.0
 10
11.458500
 20
6.485424
 30
0.0
 10
12.479722
 20
7.434961
 30
0.0
 10
11.795520
 20
7.855907
 30
0.0
 10
11.189262
 20
8.285102
 30
0.0
 10
8.865715
 20
9.663008
 30
0.0
 10
5.526577
 20
12.137611
 30
0.0
 10
2.026207
 20
16.385532
 30
0.0
 10
0.490837
 20
20.240773
 30
0.0
 10
0.020387
 20
23.070051
 30
0.0
 10
0.020943
 20
24.929810
 30
0.0
 10
0.468991
 20
27.647394
 30
0.0
 10
1.905462
 20
31.267161
 30
0.0
 10
4.913478
 20
35.215877
 30
0.0
 10
7.634366
 20
37.546169
 30
0.0
 10
9.446507
 20
38.636182
 30
0.0
 10
9.765943
 20
38.891008
 30
0.0
 10
10.159279
 20
39.046454
 30
0.0
 10
9.780615
 20
39.566752
 30
0.0
 10
9.505316
 20
40.212389
 30
0.0
 10
8.887718
 20
41.179038
 30
0.0
 10
8.314722
 20
42.146188
 30
0.0
 10
7.968425
 20
42.817577
 30
0.0
 10
7.612506
 20
43.520905
 30
0.0
 10
8.944524
 20
43.679577
 30
0.0
 10
10.124998
 20
44.399620
 30
0.0
 10
11.470344
 20
44.858035
 30
0.0
 10
12.247956
 20
45.122999
 30
0.0
 11
13.591839
 21
1.447124
 31
0.0
 11
11.298004
 21
2.169925
 31
0.0
 11
9.637182
 21
2.710232
 31
0.0
 11
8.968932
 21
2.951069
 31
0.0
 11
9.047193
 21
3.143653
 31
0.0
 11
9.343438
 21
3.557462
 31
0.0
 11
9.793532
 21
4.102908
 31
0.0
 11
10.835205
 21
5.408223
 31
0.0
 11
11.809432
 21
6.771811
 31
0.0
 11
12.240000
 21
7.527132
 31
0.0
 11
11.968667
 21
7.751809
 31
0.0
 11
11.257333
 21
8.224849
 31
0.0
 11
10.260000
 21
8.843842
 31
0.0
 11
5.539236
 21
12.445102
 31
0.0
 11
2.185053
 21
16.648498
 31
0.0
 11
0.362745
 21
21.246886
 31
0.0
 11
0.064801
 21
23.143275
 31
0.0
 11
0.064801
 21
24.856725
 31
0.0
 11
0.362745
 21
26.753115
 31
0.0
 11
2.032565
 21
31.042870
 31
0.0
 11
5.006250
 21
35.053063
 31
0.0
 11
8.949545
 21
38.332929
 31
0.0
 11
9.471973
 21
38.668223
 31
0.0
 11
9.870271
 21
38.925200
 31
0.0
 11
10.058208
 21
39.048225
 31
0.0
 11
9.935109
 21
39.364970
 31
0.0
 11
9.517985
 21
40.129803
 31
0.0
 11
8.897143
 21
41.177143
 31
0.0
 11
8.279065
 21
42.231361
 31
0.0
 11
7.869188
 21
43.014225
 31
0.0
 11
7.756249
 21
43.356249
 31
0.0
 11
8.415184
 21
43.641765
 31
0.0
 11
10.028872
 21
44.276486
 31
0.0
 11
12.247956
 21
45.122999
 31
0.0
  0
LWPOLYLINE
  5
101
100
AcDbEntity
  8
0
 62
7
100
AcDbPolyline
 90
5
 70
0
 10
12.247956
 20
45.122999
 30
0.0
 10
16.621284
 20
46.771369
 30
0.0
 10
18.330642
 20
44.981606
 30
0.0
 10
20.040000
 20
43.191844
 30
0.0
 10
21.360000
 20
43.542334
 30
0.0
  0
SPLINE
  5
102
100
AcDbEntity
  8
0
 62
7
100
AcDbSpline
 70
0
 71
3
 72
37
 73
33
 74
31
 40
0.000000
 40
0.000000
 40
0.000000
 40
0.000000
 40
5.458608
 40
11.823405
 40
17.593725
 40
18.908151
 40
19.920656
 40
20.412329
 40
20.858082
 40
21.824902
 40
23.113247
 40
24.765799
 40
25.536569
 40
25.975989
 40
26.843383
 40
28.569532
 40
30.780733
 40
32.932908
 40
34.504391
 40
35.155312
 40
35.262115
 40
35.454691
 40
35.709030
 40
37.210068
 40
38.906315
 40
39.732260
 40
40.038997
 40
40.729483
 40
41.654428
 40
43.818972
 40
45.931630
 40
48.045591
 40
48.045591
 40
48.045591
 40
48.045591
 10
21.360000
 20
43.542334
 30
0.0
 10
23.150033
 20
43.880841
 30
0.0
 10
27.027263
 20
44.614050
 30
0.0
 10
32.913751
 20
44.773891
 30
0.0
 10
37.385419
 20
44.581576
 30
0.0
 10
40.069596
 20
44.097511
 30
0.0
 10
40.976238
 20
44.047330
 30
0.0
 10
41.665457
 20
43.825443
 30
0.0
 10
42.136197
 20
44.345573
 30
0.0
 10
42.709252
 20
44.989057
 30
0.0
 10
43.497616
 20
46.066982
 30
0.0
 10
44.217498
 20
46.989594
 30
0.0
 10
44.848478
 20
47.851204
 30
0.0
 10
45.589389
 20
47.781126
 30
0.0
 10
46.485431
 20
47.330312
 30
0.0
 10
48.017120
 20
46.821251
 30
0.0
 10
49.877106
 20
46.058357
 30
0.0
 10
51.821545
 20
45.437770
 30
0.0
 10
52.966940
 20
44.726178
 30
0.0
 10
53.963955
 20
44.669887
 30
0.0
 10
54.021738
 20
44.338404
 30
0.0
 10
53.937926
 20
44.165957
 30
0.0
 10
53.604209
 20
43.618318
 30
0.0
 10
52.906551
 20
42.617887
 30
0.0
 10
52.551299
 20
41.554329
 30
0.0
 10
51.634405
 20
40.518143
 30
0.0
 10
52.273373
 20
40.226293
 30
0.0
 10
52.772322
 20
39.885416
 30
0.0
 10
53.891271
 20
39.260655
 30
0.0
 10
55.349977
 20
38.343914
 30
0.0
 10
57.083276
 20
37.093942
 30
0.0
 10
58.145414
 20
36.168125
 30
0.0
 10
58.676647
 20
35.705074
 30
0.0
 11
21.360000
 21
43.542334
 31
0.0
 11
26.746858
 21
44.424469
 31
0.0
 11
33.105635
 21
44.701229
 31
0.0
 11
38.862274
 21
44.304105
 31
0.0
 11
40.162382
 21
44.110630
 31
0.0
 11
41.165439
 21
43.972637
 31
0.0
 11
41.654288
 21
43.920000
 31
0.0
 11
42.002458
 21
44.198339
 31
0.0
 11
42.636713
 21
44.928039
 31
0.0
 11
43.419739
 21
45.951123
 31
0.0
 11
44.418339
 21
47.267834
 31
0.0
 11
44.988378
 21
47.786624
 31
0.0
 11
45.427723
 21
47.778583
 31
0.0
 11
46.238500
 21
47.470339
 31
0.0
 11
47.852392
 21
46.858014
 31
0.0
 11
49.920000
 21
46.074172
 31
0.0
 11
51.929948
 21
45.304780
 31
0.0
 11
53.392676
 21
44.730335
 31
0.0
 11
53.991512
 21
44.475201
 31
0.0
 11
54.008439
 21
44.369747
 31
0.0
 11
53.945619
 21
44.187706
 31
0.0
 11
53.816654
 21
43.968489
 31
0.0
 11
53.026219
 21
42.692429
 31
0.0
 11
52.205441
 21
41.207984
 31
0.0
 11
51.872407
 21
40.452157
 31
0.0
 11
52.130304
 21
40.286094
 31
0.0
 11
52.722218
 21
39.930554
 31
0.0
 11
53.520000
 21
39.462508
 31
0.0
 11
55.354446
 21
38.313569
 31
0.0
 11
57.061902
 21
37.069417
 31
0.0
 11
58.676647
 21
35.705074
 31
0.0
  0
LWPOLYLINE
  5
103
100
AcDbEntity
  8
0
 62
7
100
AcDbPolyline
 90
3
 70
0
 10
58.676647
 20
35.705074
 30
0.0
 10
59.873292
 20
34.619812
 30
0.0
 10
58.047775
 20
32.609906
 30
0.0
  0
SPLINE
  5
104
100
AcDbEntity
  8
0
 62
7
100
AcDbSpline
 70
0
 71
3
 72
10
 73
6
 74
4
 40
0.000000
 40
0.000000
 40
0.000000
 40
0.000000
 40
1.678386
 40
3.468490
 40
4.982781
 40
4.982781
 40
4.982781
 40
4.982781
 10
58.047775
 20
32.609906
 30
0.0
 10
57.670983
 20
32.196355
 30
0.0
 10
56.892316
 20
31.341724
 30
0.0
 10
55.769405
 20
30.117890
 30
0.0
 10
55.021291
 20
29.309464
 30
0.0
 10
54.678456
 20
28.938990
 30
0.0
 11
58.047775
 21
32.609906
 31
0.0
 11
56.916697
 21
31.369889
 31
0.0
 11
55.706238
 21
30.051079
 31
0.0
 11
54.678456
 21
28.938990
 31
0.0
  0
LWPOLYLINE
  5
105
100
AcDbEntity
  8
0
 62
7
100
AcDbPolyline
 90
3
 70
0
 10
54.678456
 20
28.938990
 30
0.0
 10
53.134652
 20
27.277979
 30
0.0
 10
52.064527
 20
28.348105
 30
0.0
  0
SPLINE
  5
106
100
AcDbEntity
  8
0
 62
7
100
AcDbSpline
 70
0
 71
3
 72
28
 73
24
 74
22
 40
0.000000
 40
0.000000
 40
0.000000
 40
0.000000
 40
1.658216
 40
3.383318
 40
4.314969
 40
5.311901
 40
7.677391
 40
10.585380
 40
13.562965
 40
16.509009
 40
18.049111
 40
19.039432
 40
21.030461
 40
22.712682
 40
23.273777
 40
23.695099
 40
23.901041
 40
26.539355
 40
31.118244
 40
33.672581
 40
35.350549
 40
38.561367
 40
41.832234
 40
41.832234
 40
41.832234
 40
41.832234
 10
52.064527
 20
28.348105
 30
0.0
 10
51.645599
 20
28.735708
 30
0.0
 10
50.790845
 20
29.526550
 30
0.0
 10
49.776626
 20
30.191786
 30
0.0
 10
48.464240
 20
31.339645
 30
0.0
 10
48.420055
 20
29.262120
 30
0.0
 10
48.211654
 20
27.560795
 30
0.0
 10
48.178863
 20
24.695687
 30
0.0
 10
48.297104
 20
21.629889
 30
0.0
 10
48.736993
 20
19.676562
 30
0.0
 10
48.749815
 20
16.863001
 30
0.0
 10
50.324000
 20
18.129776
 30
0.0
 10
51.378906
 20
18.954456
 30
0.0
 10
52.431447
 20
19.983634
 30
0.0
 10
52.985473
 20
20.668184
 30
0.0
 10
53.253894
 20
20.968552
 30
0.0
 10
54.292916
 20
21.411519
 30
0.0
 10
55.761652
 20
18.000869
 30
0.0
 10
57.460768
 20
16.417547
 30
0.0
 10
60.725192
 20
13.977357
 30
0.0
 10
58.378531
 20
12.049236
 30
0.0
 10
56.492456
 20
10.413804
 30
0.0
 10
54.631041
 20
9.240442
 30
0.0
 10
53.691710
 20
8.648326
 30
0.0
 11
52.064527
 21
28.348105
 31
0.0
 11
50.822039
 21
29.446241
 31
0.0
 11
49.451062
 21
30.493331
 31
0.0
 11
48.644717
 21
30.960000
 31
0.0
 11
48.427355
 21
29.987052
 31
0.0
 11
48.260733
 21
27.627437
 31
0.0
 11
48.204086
 21
24.720000
 31
0.0
 11
48.365700
 21
21.746804
 31
0.0
 11
48.710362
 21
18.820991
 31
0.0
 11
49.075258
 21
17.324741
 31
0.0
 11
49.935475
 21
17.815414
 31
0.0
 11
51.472902
 21
19.080530
 31
0.0
 11
52.658844
 21
20.273597
 31
0.0
 11
53.020289
 21
20.702764
 31
0.0
 11
53.328663
 21
20.989850
 31
0.0
 11
53.517204
 21
21.072701
 31
0.0
 11
55.354569
 21
19.179346
 31
0.0
 11
58.390664
 21
15.751759
 31
0.0
 11
59.992680
 21
13.762241
 31
0.0
 11
58.910261
 21
12.480077
 31
0.0
 11
56.417212
 21
10.456699
 31
0.0
 11
53.691710
 21
8.648326
 31
0.0
  0
LWPOLYLINE
  5
107
100
AcDbEntity
  8
0
 62
7
100
AcDbPolyline
 90
3
 70
0
 10
53.691710
 20
8.648326
 30
0.0
 10
52.313060
 20
7.870262
 30
0.0
 10
53.203352
 20
6.221952
 30
0.0
  0
SPLINE
  5
108
100
AcDbEntity
  8
0
 62
7
100
AcDbSpline
 70
0
 71
3
 72
13
 73
9
 74
7
 40
0.000000
 40
0.000000
 40
0.000000
 40
0.000000
 40
0.949864
 40
1.640704
 40
1.929241
 40
2.621899
 40
4.297450
 40
6.593460
 40
6.593460
 40
6.593460
 40
6.593460
 10
53.203352
 20
6.221952
 30
0.0
 10
53.352852
 20
5.937689
 30
0.0
 10
53.611084
 20
5.446680
 30
0.0
 10
53.862319
 20
4.896149
 30
0.0
 10
54.090474
 20
4.296445
 30
0.0
 10
52.878532
 20
4.084283
 30
0.0
 10
51.777042
 20
3.271065
 30
0.0
 10
50.523129
 20
2.725534
 30
0.0
 10
49.798226
 20
2.410156
 30
0.0
 11
53.203352
 21
6.221952
 31
0.0
 11
53.636913
 21
5.376810
 31
0.0
 11
53.917744
 21
4.745625
 31
0.0
 11
53.985046
 21
4.465046
 31
0.0
 11
53.371477
 21
4.143631
 31
0.0
 11
51.867324
 21
3.405394
 31
0.0
 11
49.798226
 21
2.410156
 31
0.0
  0
LWPOLYLINE
  5
109
100
AcDbEntity
  8
0
 62
7
100
AcDbPolyline
 90
5
 70
0
 10
49.798226
 20
2.410156
 30
0.0
 10
45.720000
 20
0.463860
 30
0.0
 10
43.901252
 20
2.362708
 30
0.0
 10
42.082502
 20
4.261558
 30
0.0
 10
40.316590
 20
3.927646
 30
0.0
  0
SPLINE
  5
10a
100
AcDbEntity
  8
0
 62
7
100
AcDbSpline
 70
0
 71
3
 72
22
 73
18
 74
16
 40
0.000000
 40
0.000000
 40
0.000000
 40
0.000000
 40
5.256167
 40
11.091951
 40
16.620467
 40
17.697242
 40
18.528717
 40
18.935214
 40
19.370627
 40
20.351535
 40
21.673349
 40
22.984092
 40
23.934541
 40
24.321366
 40
25.030806
 40
26.776973
 40
29.181900
 40
29.181900
 40
29.181900
 40
29.181900
 10
40.316590
 20
3.927646
 30
0.0
 10
38.578420
 20
3.694614
 30
0.0
 10
34.910407
 20
3.202853
 30
0.0
 10
29.347544
 20
3.286211
 30
0.0
 10
25.231771
 20
3.657346
 30
0.0
 10
22.773072
 20
4.148741
 30
0.0
 10
22.033561
 20
4.206599
 30
0.0
 10
21.438114
 20
4.406494
 30
0.0
 10
21.027590
 20
3.849998
 30
0.0
 10
20.476162
 20
3.184107
 30
0.0
 10
19.793945
 20
2.172118
 30
0.0
 10
19.129276
 20
1.159688
 30
0.0
 10
18.613046
 20
0.504733
 30
0.0
 10
18.195234
 20
-0.152594
 30
0.0
 10
17.175744
 20
0.502524
 30
0.0
 10
15.703831
 20
0.714325
 30
0.0
 10
14.366575
 20
1.178313
 30
0.0
 10
13.591839
 20
1.447124
 30
0.0
 11
40.316590
 21
3.927646
 31
0.0
 11
35.092098
 21
3.351469
 31
0.0
 11
29.256324
 21
3.362120
 31
0.0
 11
23.760000
 21
3.957863
 31
0.0
 11
22.698739
 21
4.139989
 31
0.0
 11
21.877486
 21
4.269973
 31
0.0
 11
21.474040
 21
4.319675
 31
0.0
 11
21.153633
 21
4.024848
 31
0.0
 11
20.550077
 21
3.251607
 31
0.0
 11
19.794040
 21
2.167355
 31
0.0
 11
19.055264
 21
1.084647
 31
0.0
 11
18.496961
 21
0.315458
 31
0.0
 11
18.240000
 21
0.026314
 31
0.0
 11
17.559030
 21
0.225274
 31
0.0
 11
15.889135
 21
0.735713
 31
0.0
 11
13.591839
 21
1.447124
 31
0.0
  0
LWPOLYLINE
  5
10b
100
AcDbEntity
  8
0
 62
7
100
AcDbPolyline
 90
1
 70
1
 10
13.591839
 20
1.447124
 30
0.0
  0
SPLINE
  5
10c
100
AcDbEntity
  8
0
 62
7
100
AcDbSpline
 70
0
 71
3
 72
16
 73
12
 74
10
 40
0.000000
 40
0.000000
 40
0.000000
 40
0.000000
 40
0.922858
 40
3.236420
 40
6.440740
 40
9.719051
 40
12.226381
 40
13.419910
 40
13.747178
 40
14.908609
 40
18.227585
 40
18.227585
 40
18.227585
 40
18.227585
 10
33.840000
 20
12.866896
 30
0.0
 10
33.642159
 20
13.102516
 30
0.0
 10
32.948339
 20
13.928821
 30
0.0
 10
31.473012
 20
15.489026
 30
0.0
 10
29.453061
 20
17.619389
 30
0.0
 10
27.448995
 20
19.827484
 30
0.0
 10
25.695450
 20
21.423243
 30
0.0
 10
25.002781
 20
22.538346
 30
0.0
 10
24.045786
 20
22.980711
 30
0.0
 10
24.502916
 20
20.394774
 30
0.0
 10
24.351882
 20
19.201828
 30
0.0
 10
24.240000
 20
18.318122
 30
0.0
 11
33.840000
 21
12.866896
 31
0.0
 11
33.242613
 21
13.570313
 31
0.0
 11
31.676490
 21
15.273202
 31
0.0
 11
29.480690
 21
17.606896
 31
0.0
 11
27.224498
 21
19.985324
 31
0.0
 11
25.500054
 21
21.805488
 31
0.0
 11
24.680690
 21
22.673333
 31
0.0
 11
24.375918
 21
22.792574
 31
0.0
 11
24.258993
 21
21.637044
 31
0.0
 11
24.240000
 21
18.318122
 31
0.0
  0
LWPOLYLINE
  5
10d
100
AcDbEntity
  8
0
 62
7
100
AcDbPolyline
 90
3
 70
0
 10
24.240000
 20
18.318122
 30
0.0
 10
24.240000
 20
13.489579
 30
0.0
 10
26.220000
 20
13.226624
 30
0.0
  0
SPLINE
  5
10e
100
AcDbEntity
  8
0
 62
7
100
AcDbSpline
 70
0
 71
3
 72
10
 73
6
 74
4
 40
0.000000
 40
0.000000
 40
0.000000
 40
0.000000
 40
3.565177
 40
6.452043
 40
7.651217
 40
7.651217
 40
7.651217
 40
7.651217
 10
26.220000
 20
13.226624
 30
0.0
 10
27.399700
 20
13.104731
 30
0.0
 10
29.534650
 20
12.884137
 30
0.0
 10
32.093297
 20
12.609468
 30
0.0
 10
33.443686
 20
12.808488
 30
0.0
 10
33.840000
 20
12.866896
 30
0.0
 11
26.220000
 21
13.226624
 31
0.0
 11
29.766025
 21
12.857579
 31
0.0
 11
32.649679
 21
12.721447
 31
0.0
 11
33.840000
 21
12.866896
 31
0.0
  0
LWPOLYLINE
  5
10f
100
AcDbEntity
  8
0
 62
7
100
AcDbPolyline
 90
1
 70
1
 10
33.840000
 20
12.866896
 30
0.0
  0
SPLINE
  5
110
100
AcDbEntity
  8
0
 62
7
100
AcDbSpline
 70
0
 71
3
 72
10
 73
6
 74
4
 40
0.000000
 40
0.000000
 40
0.000000
 40
0.000000
 40
3.164981
 40
6.126356
 40
8.851113
 40
8.851113
 40
8.851113
 40
8.851113
 10
15.599234
 20
20.220000
 30
0.0
 10
15.573625
 20
21.274895
 30
0.0
 10
15.524054
 20
23.316822
 30
0.0
 10
15.156328
 20
26.253722
 30
0.0
 10
14.674657
 20
28.088420
 30
0.0
 10
14.443844
 20
28.967595
 30
0.0
 11
15.599234
 21
20.220000
 31
0.0
 11
15.467706
 21
23.382247
 31
0.0
 11
15.079925
 21
26.318123
 31
0.0
 11
14.443844
 21
28.967595
 31
0.0
  0
LWPOLYLINE
  5
111
100
AcDbEntity
  8
0
 62
7
100
AcDbPolyline
 90
3
 70
0
 10
14.443844
 20
28.967595
 30
0.0
 10
14.019568
 20
30.360000
 30
0.0
 10
12.689341
 20
29.102597
 30
0.0
  0
SPLINE
  5
112
100
AcDbEntity
  8
0
 62
7
100
AcDbSpline
 70
0
 71
3
 72
16
 73
12
 74
10
 40
0.000000
 40
0.000000
 40
0.000000
 40
0.000000
 40
3.910323
 40
7.076501
 40
10.720629
 40
12.402268
 40
14.030301
 40
14.978147
 40
15.318602
 40
16.321705
 40
18.206948
 40
18.206948
 40
18.206948
 40
18.206948
 10
12.689341
 20
29.102597
 30
0.0
 10
11.772666
 20
28.131528
 30
0.0
 10
10.113762
 20
26.374185
 30
0.0
 10
9.791290
 20
22.506336
 30
0.0
 10
11.433526
 20
20.083203
 30
0.0
 10
13.161339
 20
18.397600
 30
0.0
 10
14.168059
 20
17.774307
 30
0.0
 10
15.210451
 20
16.773168
 30
0.0
 10
15.610360
 20
17.567994
 30
0.0
 10
15.541515
 20
18.618375
 30
0.0
 10
15.576438
 20
19.587467
 30
0.0
 10
15.599234
 20
20.220000
 30
0.0
 11
12.689341
 21
29.102597
 31
0.0
 11
10.380856
 21
25.946409
 31
0.0
 11
10.134607
 21
22.789822
 31
0.0
 11
11.950395
 21
19.630298
 31
0.0
 11
13.164394
 21
18.466634
 31
0.0
 11
14.453373
 21
17.472137
 31
0.0
 11
15.300000
 21
17.045950
 31
0.0
 11
15.477815
 21
17.336280
 31
0.0
 11
15.571964
 21
18.334955
 31
0.0
 11
15.599234
 21
20.220000
 31
0.0
  0
LWPOLYLINE
  5
113
100
AcDbEntity
  8
0
 62
7
100
AcDbPolyline
 90
1
 70
1
 10
15.599234
 20
20.220000
 30
0.0
  0
SPLINE
  5
114
100
AcDbEntity
  8
0
 62
7
100
AcDbSpline
 70
0
 71
3
 72
10
 73
6
 74
4
 40
0.000000
 40
0.000000
 40
0.000000
 40
0.000000
 40
1.248378
 40
3.803034
 40
6.986285
 40
6.986285
 40
6.986285
 40
6.986285
 10
38.553140
 20
34.486860
 30
0.0
 10
38.149611
 20
34.591929
 30
0.0
 10
36.920308
 20
34.912008
 30
0.0
 10
34.575090
 20
34.964889
 30
0.0
 10
32.665650
 20
34.979686
 30
0.0
 10
31.606340
 20
34.987896
 30
0.0
 11
38.553140
 21
34.486860
 31
0.0
 11
37.337453
 21
34.770678
 31
0.0
 11
34.789415
 21
34.954455
 31
0.0
 11
31.606340
 21
34.987896
 31
0.0
  0
LWPOLYLINE
  5
115
100
AcDbEntity
  8
0
 62
7
100
AcDbPolyline
 90
5
 70
0
 10
31.606340
 20
34.987896
 30
0.0
 10
27.812678
 20
34.919998
 30
0.0
 10
33.166340
 20
29.223011
 30
0.0
 10
38.520000
 20
23.526022
 30
0.0
 10
38.584598
 20
28.958414
 30
0.0
  0
SPLINE
  5
116
100
AcDbEntity
  8
0
 62
7
100
AcDbSpline
 70
0
 71
3
 72
10
 73
6
 74
4
 40
0.000000
 40
0.000000
 40
0.000000
 40
0.000000
 40
2.749546
 40
4.735723
 40
5.529530
 40
5.529530
 40
5.529530
 40
5.529530
 10
38.584598
 20
28.958414
 30
0.0
 10
38.590187
 20
29.874779
 30
0.0
 10
38.599814
 20
31.453093
 30
0.0
 10
38.620089
 20
33.297299
 30
0.0
 10
38.568013
 20
34.222635
 30
0.0
 10
38.553143
 20
34.486858
 30
0.0
 11
38.584598
 21
28.958414
 31
0.0
 11
38.603974
 21
31.707892
 31
0.0
 11
38.592676
 21
33.694037
 31
0.0
 11
38.553143
 21
34.486858
 31
0.0
  0
LWPOLYLINE
  5
117
100
AcDbEntity
  8
0
 62
7
100
AcDbPolyline
 90
1
 70
1
 10
38.553143
 20
34.486858
 30
0.0
  0
ENDSEC
  0
SECTION
  2
OBJECTS
  0
DICTIONARY
  5
C
330
0
100
AcDbDictionary
  3
ACAD_GROUP
350
D
  3
ACAD_MLINESTYLE
350
17
  0
DICTIONARY
  5
D
330
C
100
AcDbDictionary
  0
DICTIONARY
  5
1A
330
C
100
AcDbDictionary
  0
DICTIONARY
  5
17
330
C
100
AcDbDictionary
  3
STANDARD
350
18
  0
DICTIONARY
  5
19
330
C
100
AcDbDictionary
  0
ENDSEC
  0
EOF
